#!OML:ASF H:\Dans Jumps\Project 1\Capture day 1\Session 1\subject.ASF
:FULLY-SPECIFIED
:DEGREES
265
root 0.369653 19.5612 -9.6338 5.52637 1.15481 -0.470743
lowerback 6.72715 0.234965 -1.50489
upperback 5.74245 0.226427 1.77218
thorax 2.14695 0.0318006 2.66176
lowerneck -7.05185 -0.190442 -2.08693
upperneck 31.1275 -0.144836 0.948786
head 11.2215 -0.184481 0.698659
rclavicle 4.77083e-015 -1.59028e-015
rhumerus 4.19483 5.93681 -83.8643
rradius 34.053
rwrist 23.613
rhand -22.1375 -20.5845
rfingers 7.12502
rthumb 4.276 -50.5213
lclavicle 4.77083e-015 -1.59028e-015
lhumerus 10.1184 -19.6754 82.1855
lradius 49.3119
lwrist 31.7596
lhand -27.5603 -13.1311
lfingers 7.12502
lthumb -0.961271 16.8465
rfemur -28.2201 -4.30095 18.0251
rtibia 31.7601
rfoot 12.0931 -1.91167
rtoes 12.5745
lfemur -24.7574 5.22638 -18.7713
ltibia 24.2607
lfoot 15.3659 0.750878
ltoes -2.9159
266
root 0.368543 19.4249 -9.5227 5.26407 1.34002 -0.434782
lowerback 6.42583 0.19033 -1.52115
upperback 5.69197 0.169531 1.75718
thorax 2.26464 0.00237901 2.65839
lowerneck -7.05729 -0.204858 -2.08374
upperneck 31.3665 -0.17587 0.984192
head 11.3169 -0.194875 0.709059
rclavicle 1.49089e-015 2.78299e-015
rhumerus 3.76493 5.68138 -83.9988
rradius 33.9827
rwrist 23.6467
rhand -22.1293 -20.6112
rfingers 7.12502
rthumb 4.28395 -50.5479
lclavicle 1.49089e-015 2.78299e-015
lhumerus 9.96083 -19.9514 82.2469
lradius 49.218
lwrist 31.522
lhand -27.2978 -12.9005
lfingers 7.12502
lthumb -0.70775 17.0781
rfemur -27.8482 -4.23819 17.9098
rtibia 31.4919
rfoot 11.7869 -1.83473
rtoes 11.7849
lfemur -24.3934 5.24513 -18.8697
ltibia 23.8387
lfoot 15.2867 0.55701
ltoes -4.25691
267
root 0.367888 19.2761 -9.40854 4.97534 1.49404 -0.411821
lowerback 6.10591 0.153383 -1.53176
upperback 5.64664 0.123136 1.7473
thorax 2.39767 -0.0219766 2.65639
lowerneck -7.05625 -0.219419 -2.09474
upperneck 31.5958 -0.203889 1.01676
head 11.4077 -0.205779 0.721235
rclavicle 2.88238e-015 1.63003e-014
rhumerus 3.32603 5.43944 -84.1226
rradius 33.912
rwrist 23.6942
rhand -22.1424 -20.6088
rfingers 7.12502
rthumb 4.27125 -50.5457
lclavicle 2.88238e-015 1.63003e-014
lhumerus 9.76161 -20.2054 82.3269
lradius 49.1484
lwrist 31.3215
lhand -27.0725 -12.7138
lfingers 7.12502
lthumb -0.490076 17.2653
rfemur -27.4344 -4.16432 17.8086
rtibia 31.3111
rfoot 11.4464 -1.73896
rtoes 10.9565
lfemur -24.001 5.27453 -18.9485
ltibia 23.53
lfoot 15.1666 0.388073
ltoes -5.40211
268
root 0.367631 19.1147 -9.29192 4.66279 1.60572 -0.407599
lowerback 5.77532 0.127251 -1.5348
upperback 5.60199 0.0913069 1.7462
thorax 2.53677 -0.0390888 2.65836
lowerneck -7.06485 -0.229651 -2.12488
upperneck 31.8342 -0.221438 1.04759
head 11.5044 -0.214407 0.737475
rclavicle -3.08116e-015 5.1684e-015
rhumerus 2.86809 5.22218 -84.2288
rradius 33.8506
rwrist 23.7544
rhand -22.1623 -20.5725
rfingers 7.12502
rthumb 4.25204 -50.5098
lclavicle -3.08116e-015 5.1684e-015
lhumerus 9.5234 -20.4374 82.4248
lradius 49.0918
lwrist 31.1617
lhand -26.8916 -12.5853
lfingers 7.12502
lthumb -0.315354 17.3942
rfemur -26.9904 -4.06874 17.7289
rtibia 31.2197
rfoot 11.1064 -1.62713
rtoes 10.2059
lfemur -23.6 5.31911 -18.9993
ltibia 23.3588
lfoot 14.993 0.24526
ltoes -6.32562
269
root 0.367752 18.9402 -9.17327 4.32719 1.68378 -0.421112
lowerback 5.44318 0.109688 -1.52529
upperback 5.55232 0.0711447 1.75081
thorax 2.67108 -0.0499808 2.65861
lowerneck -7.09134 -0.237134 -2.16677
upperneck 32.0923 -0.231905 1.07658
head 11.6132 -0.221533 0.756149
rclavicle -1.10325e-014 -7.55382e-015
rhumerus 2.38826 5.01746 -84.3233
rradius 33.7864
rwrist 23.837
rhand -22.1876 -20.5092
rfingers 7.12502
rthumb 4.22762 -50.447
lclavicle -1.10325e-014 -7.55382e-015
lhumerus 9.23961 -20.6507 82.5378
lradius 49.0399
lwrist 31.0392
lhand -26.7501 -12.5136
lfingers 7.12502
lthumb -0.178726 17.466
rfemur -26.5297 -3.95964 17.6684
rtibia 31.2337
rfoot 10.7725 -1.48852
rtoes 9.63268
lfemur -23.2213 5.39261 -19.0314
ltibia 23.3817
lfoot 14.6681 0.0477652
ltoes -6.69022
270
root 0.36807 18.7518 -9.05332 3.97113 1.72707 -0.442698
lowerback 5.12061 0.103075 -1.51227
upperback 5.49208 0.0654544 1.75716
thorax 2.78846 -0.0532633 2.65813
lowerneck -7.14771 -0.243251 -2.21343
upperneck 32.3802 -0.238086 1.10321
head 11.7407 -0.227722 0.775632
rclavicle 1.98785e-016 6.75868e-015
rhumerus 1.87462 4.81776 -84.4065
rradius 33.7218
rwrist 23.9519
rhand -22.2025 -20.4148
rfingers 7.12502
rthumb 4.21323 -50.3529
lclavicle 1.98785e-016 6.75868e-015
lhumerus 8.91051 -20.848 82.6647
lradius 48.9745
lwrist 30.9359
lhand -26.643 -12.5115
lfingers 7.12502
lthumb -0.0753205 17.4683
rfemur -26.0633 -3.85723 17.6252
rtibia 31.4021
rfoot 10.0728 -1.13391
rtoes 8.41822
lfemur -22.8855 5.56473 -19.075
ltibia 23.6777
lfoot 13.751 -0.326695
ltoes -6.41447
271
root 0.368126 18.5501 -8.93443 3.59483 1.80261 -0.477863
lowerback 4.83214 0.0873348 -1.48001
upperback 5.41743 0.0478091 1.76597
thorax 2.87265 -0.0613709 2.64953
lowerneck -7.22858 -0.249431 -2.25884
upperneck 32.6838 -0.244437 1.13143
head 11.8806 -0.233745 0.79574
rclavicle -9.54166e-015 -5.96354e-015
rhumerus 1.32852 4.60591 -84.4837
rradius 33.6573
rwrist 24.0997
rhand -22.1814 -20.319
rfingers 7.12502
rthumb 4.23357 -50.2567
lclavicle -9.54166e-015 -5.96354e-015
lhumerus 8.55593 -21.0272 82.8043
lradius 48.8635
lwrist 30.827
lhand -26.5637 -12.5694
lfingers 7.12502
lthumb 0.00133019 17.4104
rfemur -25.5922 -3.81833 17.6105
rtibia 31.7885
rfoot 8.74103 -0.565002
rtoes 7.608
lfemur -22.6172 5.82168 -19.1315
ltibia 24.3414
lfoot 12.0882 -0.821358
ltoes -5.36389
272
root 0.367835 18.338 -8.8192 3.20411 1.90908 -0.520558
lowerback 4.5978 0.0642108 -1.43325
upperback 5.32399 0.0202605 1.77344
thorax 2.9077 -0.0731495 2.63137
lowerneck -7.31171 -0.262094 -2.30772
upperneck 32.9757 -0.262551 1.16989
head 12.0176 -0.244214 0.818966
rclavicle 9.93923e-017 -1.19271e-014
rhumerus 0.752019 4.36578 -84.5605
rradius 33.5848
rwrist 24.2946
rhand -22.1251 -20.23
rfingers 7.12502
rthumb 4.288 -50.1666
lclavicle 9.93923e-017 -1.19271e-014
lhumerus 8.17335 -21.178 82.9634
lradius 48.6935
lwrist 30.6782
lhand -26.5153 -12.6793
lfingers 7.12502
lthumb 0.0480833 17.3005
rfemur -25.131 -3.85074 17.6179
rtibia 32.4633
rfoot 6.63862 0.211321
rtoes 6.62944
lfemur -22.4378 6.17721 -19.2079
ltibia 25.4487
lfoot 9.50146 -1.40076
ltoes -4.11887
273
root 0.367176 18.1193 -8.70997 2.79936 2.02846 -0.56817
lowerback 4.43637 0.0410024 -1.37644
upperback 5.21593 -0.00766403 1.77771
thorax 2.8868 -0.0839651 2.604
lowerneck -7.41146 -0.280876 -2.3499
upperneck 33.264 -0.29161 1.21193
head 12.1578 -0.25829 0.841179
rclavicle 1.49089e-015 -3.97569e-016
rhumerus 0.160002 4.08506 -84.6396
rradius 33.4948
rwrist 24.5315
rhand -22.0406 -20.1675
rfingers 7.12502
rthumb 4.36955 -50.1024
lclavicle 1.49089e-015 -3.97569e-016
lhumerus 7.78512 -21.2889 83.1447
lradius 48.438
lwrist 30.4657
lhand -26.4873 -12.839
lfingers 7.12502
lthumb 0.0750732 17.1407
rfemur -24.7117 -3.93365 17.6386
rtibia 33.4695
rfoot 3.70725 1.08398
rtoes 5.67378
lfemur -22.3695 6.59261 -19.2881
ltibia 27.0197
lfoot 6.08663 -1.82427
ltoes -2.80801
274
root 0.365875 17.8983 -8.60944 2.38206 2.16972 -0.623884
lowerback 4.37344 0.0192263 -1.30489
upperback 5.10142 -0.0338776 1.7789
thorax 2.80398 -0.0927013 2.56501
lowerneck -7.54587 -0.309528 -2.38261
upperneck 33.5464 -0.337369 1.25816
head 12.3043 -0.277959 0.861395
rclavicle -4.07509e-015 -9.54166e-015
rhumerus -0.418167 3.72781 -84.7247
rradius 33.3735
rwrist 24.819
rhand -21.9451 -20.1476
rfingers 7.12502
rthumb 4.46179 -50.0806
lclavicle -4.07509e-015 -9.54166e-015
lhumerus 7.40874 -21.3504 83.3544
lradius 48.0916
lwrist 30.1637
lhand -26.4833 -13.0251
lfingers 7.12502
lthumb 0.078954 16.9546
rfemur -24.3762 -4.04807 17.6685
rtibia 34.8071
rfoot 0.152594 1.79444
rtoes 4.88178
lfemur -22.4398 6.9894 -19.3479
ltibia 28.9984
lfoot 2.1897 -1.88021
ltoes -1.81355
275
root 0.363763 17.6796 -8.51892 1.94558 2.31553 -0.672469
lowerback 4.4322 0.00833173 -1.24017
upperback 4.99421 -0.0462036 1.77539
thorax 2.66001 -0.0941654 2.52481
lowerneck -7.74205 -0.350964 -2.41049
upperneck 33.8285 -0.403891 1.3128
head 12.4654 -0.304919 0.881559
rclavicle -7.95139e-015 -1.74931e-014
rhumerus -0.957088 3.27371 -84.8107
rradius 33.2063
rwrist 25.157
rhand -21.8885 -20.166
rfingers 7.12502
rthumb 4.51642 -50.0978
lclavicle -7.95139e-015 -1.74931e-014
lhumerus 7.0542 -21.3532 83.5999
lradius 47.655
lwrist 29.7685
lhand -26.4972 -13.2161
lfingers 7.12502
lthumb 0.065499 16.7636
rfemur -24.1476 -4.16477 17.687
rtibia 36.4138
rfoot -3.68815 2.14893
rtoes 4.20584
lfemur -22.6448 7.33194 -19.3933
ltibia 31.2719
lfoot -1.78505 -1.46941
ltoes -1.11083
276
root 0.360437 17.468 -8.43928 1.48463 2.46516 -0.716886
lowerback 4.62884 0.00846966 -1.19007
upperback 4.91092 -0.0446977 1.77332
thorax 2.46332 -0.0889995 2.49422
lowerneck -8.02953 -0.401199 -2.44455
upperneck 34.1145 -0.484282 1.38134
head 12.6493 -0.336644 0.906596
rclavicle -9.44227e-015 0
rhumerus -1.43668 2.72118 -84.8903
rradius 32.9952
rwrist 25.5403
rhand -21.8769 -20.244
rfingers 7.12502
rthumb 4.52764 -50.1756
lclavicle -9.44227e-015 0
lhumerus 6.72467 -21.2755 83.8906
lradius 47.1379
lwrist 29.2808
lhand -26.5647 -13.4002
lfingers 7.12502
lthumb 0.000352679 16.5795
rfemur -24.0293 -4.28347 17.703
rtibia 38.1969
rfoot -7.48044 2.08111
rtoes 3.64819
lfemur -22.9718 7.5944 -19.4182
ltibia 33.7076
lfoot -5.46554 -0.635074
ltoes -0.625448
277
root 0.355735 17.2682 -8.36953 0.994744 2.59458 -0.766
lowerback 4.96163 0.0262072 -1.1553
upperback 4.8655 -0.0207503 1.77929
thorax 2.22914 -0.0732689 2.48015
lowerneck -8.42311 -0.456582 -2.48709
upperneck 34.3912 -0.573362 1.46646
head 12.8542 -0.370587 0.938501
rclavicle 2.18663e-015 -3.57812e-015
rhumerus -1.85714 2.08896 -84.9546
rradius 32.7525
rwrist 25.9503
rhand -21.9336 -20.3921
rfingers 7.12502
rthumb 4.47291 -50.3249
lclavicle 2.18663e-015 -3.57812e-015
lhumerus 6.39898 -21.0925 84.2344
lradius 46.556
lwrist 28.7161
lhand -26.6564 -13.5429
lfingers 7.12502
lthumb -0.0882222 16.4368
rfemur -24.0092 -4.38598 17.7319
rtibia 40.0585
rfoot -10.859 1.66478
rtoes 3.62114
lfemur -23.3874 7.79241 -19.4178
ltibia 36.1931
lfoot -8.562 0.425728
ltoes -0.0797028
